<?xml version="1.0" encoding="UTF-8" standalone="no"?>
<svg
   id="a"
   width="128"
   height="128"
   viewBox="0 0 95.99999 95.99999"
   version="1.1"
   sodipodi:docname="nac3.svg"
   inkscape:version="1.1.1 (3bf5ae0d25, 2021-09-20)"
   xmlns:inkscape="http://www.inkscape.org/namespaces/inkscape"
   xmlns:sodipodi="http://sodipodi.sourceforge.net/DTD/sodipodi-0.dtd"
   xmlns="http://www.w3.org/2000/svg"
   xmlns:svg="http://www.w3.org/2000/svg">
  <defs
     id="defs11" />
  <sodipodi:namedview
     id="namedview9"
     pagecolor="#ffffff"
     bordercolor="#666666"
     borderopacity="1.0"
     inkscape:pageshadow="2"
     inkscape:pageopacity="0.0"
     inkscape:pagecheckerboard="0"
     inkscape:document-units="mm"
     showgrid="false"
     units="px"
     width="128px"
     inkscape:zoom="5.9448568"
     inkscape:cx="60.472441"
     inkscape:cy="60.556547"
     inkscape:window-width="2560"
     inkscape:window-height="1371"
     inkscape:window-x="0"
     inkscape:window-y="32"
     inkscape:window-maximized="1"
     inkscape:current-layer="a" />
  <rect
     x="40.072601"
     y="-26.776209"
     width="55.668747"
     height="55.668747"
     transform="matrix(0.71803815,0.69600374,-0.71803815,0.69600374,0,0)"
     style="fill:#be211e;stroke:#000000;stroke-width:4.37375px;stroke-linecap:round;stroke-linejoin:round"
     id="rect2" />
  <line
     x1="38.00692"
     y1="63.457153"
     x2="57.993061"
     y2="63.457153"
     style="fill:none;stroke:#000000;stroke-width:4.37269px;stroke-linecap:round;stroke-linejoin:round"
     id="line4" />
  <path
     d="m 48.007301,57.843329 c -1.943097,0 -3.877522,-0.41727 -5.686157,-1.246007 -3.218257,-1.474616 -5.650382,-4.075418 -6.849639,-7.323671 -2.065624,-5.588921 -1.192751,-10.226647 2.575258,-13.827 0.611554,-0.584909 1.518048,-0.773041 2.323689,-0.488206 0.80673,0.286405 1.369495,0.998486 1.447563,1.827234 0.237469,2.549302 2.439719,5.917376 4.28414,6.55273 0.396859,0.13506 0.820953,-0.05859 1.097084,-0.35222 0.339254,-0.360754 0.451065,-0.961893 -1.013597,-3.191372 -2.089851,-3.181137 -4.638728,-8.754903 -0.262407,-15.069853 0.494457,-0.713491 1.384673,-1.068907 2.256469,-0.909156 0.871795,0.161332 1.583757,0.806404 1.752251,1.651189 0.716448,3.591862 2.962357,6.151755 5.199306,8.023138 1.935503,1.61861 4.344688,3.867387 5.435687,7.096643 2.283183,6.758017 -1.202511,14.114988 -8.060822,16.494025 -1.467083,0.509226 -2.98513,0.762536 -4.498836,0.762536 z M 39.358865,40.002192 c -0.304711,0.696206 -0.541636,2.080524 -0.56865,2.237454 -0.330316,1.918771 0.168305,3.803963 0.846157,5.539951 0.856828,2.19436 2.437543,3.942467 4.583411,4.925713 2.143691,0.981675 4.554131,1.097816 6.789992,0.322666 4.571485,-1.586549 6.977584,-6.532238 5.363036,-11.02597 v -5.27e-4 C 55.455481,39.447968 54.023463,38.162043 52.221335,36.65432 50.876945,35.529534 49.409662,33.987726 48.417983,32.135555 48.01343,31.37996 47.79547,30.34303 47.76669,29.413263 c -0.187481,0.669514 -0.212441,2.325923 -0.150396,2.93691 0.179209,1.764456 1.333476,3.644546 2.340611,5.171243 1.311568,1.988179 2.72058,6.037272 0.459681,8.367985 -1.54192,1.58953 -4.038511,2.052034 -5.839973,1.38492 -2.398314,-0.888147 -3.942744,-2.690627 -4.941118,-4.768029 -0.121194,-0.25217 -0.532464,-1.174187 -0.276619,-2.5041 z"
     id="path6"
     style="stroke-width:1.09317" />
</svg>
